<svg width="14" height="14" viewBox="0 0 14 14" fill="none" xmlns="http://www.w3.org/2000/svg">
<path d="M1.73 12.2204L3.762 11.5224L4.128 11.7057C4.975 12.1288 5.943 12.3543 7 12.3543C10.496 12.3543 13 9.78252 13 6.69189C13 3.58994 10.514 1.02952 7 1.02952C3.486 1.02952 1 3.58994 1 6.69189C1.00591 7.87896 1.38556 9.03204 2.082 9.97813L2.42 10.4414L1.73 12.2204ZM1.023 13.5485C0.932507 13.5797 0.835226 13.5836 0.74265 13.5597C0.650073 13.5359 0.566068 13.4852 0.500557 13.4138C0.435046 13.3423 0.390766 13.253 0.372947 13.1565C0.355129 13.06 0.364516 12.9602 0.4 12.869L1.283 10.5969C0.456181 9.47242 0.00598182 8.10219 0 6.69189C0 3.28006 2.682 0 7 0C11.318 0 14 3.28006 14 6.69189C14 10.1037 11.29 13.3838 7 13.3838C5.755 13.3838 4.643 13.1079 3.692 12.6322L1.023 13.5485Z" fill="#3E75CB"/>
</svg>
