<svg width="37" height="33" viewBox="0 0 37 33" fill="none" xmlns="http://www.w3.org/2000/svg">
<g id="Compare icon">
<path id="Vector" d="M16.8438 30.3837V27.3358H8.5995C7.8941 27.3358 7.30559 27.1254 6.83397 26.7044C6.36234 26.2834 6.12602 25.7577 6.125 25.1272V7.67646C6.125 7.04684 6.36132 6.52155 6.83397 6.10059C7.30661 5.67963 7.89513 5.46869 8.5995 5.46778H16.8438V2.41992H18.375V30.3837H16.8438ZM21.7315 6.83454V5.46778H28.446C29.1504 5.46778 29.7389 5.67872 30.2116 6.10059C30.6842 6.52246 30.92 7.04775 30.919 7.67646V25.1285C30.919 25.7572 30.6832 26.2825 30.2116 26.7044C29.7399 27.1263 29.1514 27.3368 28.446 27.3358H21.7315V25.9691H28.446C28.6808 25.9691 28.8967 25.8816 29.0938 25.7067C29.2908 25.5317 29.3888 25.3386 29.3877 25.1272V7.67646C29.3877 7.46598 29.2897 7.27281 29.0938 7.09695C28.8978 6.9211 28.6818 6.83363 28.446 6.83454H21.7315ZM21.7315 17.0852V15.7184H27.0909V17.0852H21.7315ZM21.7315 12.3016V10.9348H27.0909V12.3016H21.7315ZM11.4844 21.8688H16.8438V20.5021H11.4844V21.8688ZM11.4844 17.0852H16.8438V15.7184H11.4844V17.0852ZM11.4844 12.3016H16.8438V10.9348H11.4844V12.3016Z" fill="#3E74CB"/>
</g>
</svg>
