<svg width="15" height="16" viewBox="0 0 15 16" fill="none" xmlns="http://www.w3.org/2000/svg">
<path d="M6.75 5.40499H8.25V3.86071H6.75M7.5 13.8985C4.1925 13.8985 1.5 11.1266 1.5 7.72141C1.5 4.31627 4.1925 1.54428 7.5 1.54428C10.8075 1.54428 13.5 4.31627 13.5 7.72141C13.5 11.1266 10.8075 13.8985 7.5 13.8985ZM7.5 0C6.51509 0 5.53982 0.19972 4.62987 0.587758C3.71993 0.975795 2.89314 1.54455 2.1967 2.26155C0.790176 3.7096 0 5.67357 0 7.72141C0 9.76926 0.790176 11.7332 2.1967 13.1813C2.89314 13.8983 3.71993 14.467 4.62987 14.8551C5.53982 15.2431 6.51509 15.4428 7.5 15.4428C9.48912 15.4428 11.3968 14.6293 12.8033 13.1813C14.2098 11.7332 15 9.76926 15 7.72141C15 6.70742 14.806 5.70336 14.4291 4.76656C14.0522 3.82975 13.4997 2.97855 12.8033 2.26155C12.1069 1.54455 11.2801 0.975795 10.3701 0.587758C9.46018 0.19972 8.48491 0 7.5 0ZM6.75 11.5821H8.25V6.94927H6.75V11.5821Z" fill="#3E75CB"/>
</svg>
