<svg width="12" height="12" viewBox="0 0 12 12" fill="none" xmlns="http://www.w3.org/2000/svg">
<g clip-path="url(#clip0_321_4560)">
<path d="M4.5 0.75C4.03451 0.749756 3.5804 0.893892 3.20026 1.16254C2.82012 1.43119 2.53266 1.81113 2.3775 2.25H0V3.75H2.3775C2.53245 4.18915 2.8198 4.56943 3.19995 4.83841C3.5801 5.10739 4.03432 5.25184 4.5 5.25184C4.96568 5.25184 5.4199 5.10739 5.80005 4.83841C6.1802 4.56943 6.46755 4.18915 6.6225 3.75H12V2.25H6.6225C6.46734 1.81113 6.17988 1.43119 5.79974 1.16254C5.4196 0.893892 4.96549 0.749756 4.5 0.75ZM7.5 6.75C7.03451 6.74976 6.5804 6.89389 6.20026 7.16254C5.82012 7.43119 5.53266 7.81113 5.3775 8.25H0V9.75H5.3775C5.53245 10.1892 5.8198 10.5694 6.19995 10.8384C6.5801 11.1074 7.03432 11.2518 7.5 11.2518C7.96568 11.2518 8.4199 11.1074 8.80005 10.8384C9.1802 10.5694 9.46755 10.1892 9.6225 9.75H12V8.25H9.6225C9.46734 7.81113 9.17988 7.43119 8.79974 7.16254C8.4196 6.89389 7.96549 6.74976 7.5 6.75Z" fill="white"/>
</g>
<defs>
<clipPath id="clip0_321_4560">
<rect width="12" height="12" fill="white"/>
</clipPath>
</defs>
</svg>
