<svg width="22" height="20" viewBox="0 0 22 20" fill="none" xmlns="http://www.w3.org/2000/svg">
<g id="la:shipping-fast" clip-path="url(#clip0_324_2578)">
<path id="Vector" d="M0 3.58765V4.78356H12.7285V13.7529H8.60448C8.30569 12.725 7.26999 11.959 6.0293 11.959C4.7886 11.959 3.7529 12.725 3.45412 13.7529H2.67969V10.7631H1.33984V14.9488H3.45412C3.7529 15.9767 4.7886 16.7427 6.0293 16.7427C7.26999 16.7427 8.30569 15.9767 8.60448 14.9488H14.1729C14.4717 15.9767 15.5074 16.7427 16.748 16.7427C17.9887 16.7427 19.0244 15.9767 19.3232 14.9488H21.4375V10.0719L21.3953 9.978L20.0555 6.39026L19.9101 5.97947H14.0684V3.58765H0ZM0.669922 5.97947V7.17538H6.69922V5.97947H0.669922ZM14.0684 7.17538H18.9461L20.0977 10.2399V13.7529H19.3232C19.0244 12.725 17.9887 11.959 16.748 11.959C15.5074 11.959 14.4717 12.725 14.1729 13.7529H14.0684V7.17538ZM1.33984 8.37129V9.5672H5.35938V8.37129H1.33984ZM6.0293 13.1549C6.7776 13.1549 7.36914 13.6829 7.36914 14.3508C7.36914 15.0188 6.7776 15.5468 6.0293 15.5468C5.28099 15.5468 4.68945 15.0188 4.68945 14.3508C4.68945 13.6829 5.28099 13.1549 6.0293 13.1549ZM16.748 13.1549C17.4963 13.1549 18.0879 13.6829 18.0879 14.3508C18.0879 15.0188 17.4963 15.5468 16.748 15.5468C15.9997 15.5468 15.4082 15.0188 15.4082 14.3508C15.4082 13.6829 15.9997 13.1549 16.748 13.1549Z" fill="#9D9996"/>
</g>
<defs>
<clipPath id="clip0_324_2578">
<rect width="21.4375" height="19.1346" fill="white"/>
</clipPath>
</defs>
</svg>
