<svg width="26" height="24" viewBox="0 0 26 24" fill="none" xmlns="http://www.w3.org/2000/svg">
<g id="Gallery icon">
<path id="Vector" fill-rule="evenodd" clip-rule="evenodd" d="M21.6663 4H4.33301C4.04569 4 3.77014 4.10536 3.56698 4.29289C3.36381 4.48043 3.24967 4.73478 3.24967 5V19C3.24967 19.2652 3.36381 19.5196 3.56698 19.7071C3.77014 19.8946 4.04569 20 4.33301 20H21.6663C21.9537 20 22.2292 19.8946 22.4324 19.7071C22.6355 19.5196 22.7497 19.2652 22.7497 19V5C22.7497 4.73478 22.6355 4.48043 22.4324 4.29289C22.2292 4.10536 21.9537 4 21.6663 4ZM4.33301 2C3.47105 2 2.6444 2.31607 2.03491 2.87868C1.42542 3.44129 1.08301 4.20435 1.08301 5V19C1.08301 19.7956 1.42542 20.5587 2.03491 21.1213C2.6444 21.6839 3.47105 22 4.33301 22H21.6663C22.5283 22 23.3549 21.6839 23.9644 21.1213C24.5739 20.5587 24.9163 19.7956 24.9163 19V5C24.9163 4.20435 24.5739 3.44129 23.9644 2.87868C23.3549 2.31607 22.5283 2 21.6663 2H4.33301ZM6.49967 7H8.66634V9H6.49967V7ZM11.9163 7C11.629 7 11.3535 7.10536 11.1503 7.29289C10.9471 7.48043 10.833 7.73478 10.833 8C10.833 8.26522 10.9471 8.51957 11.1503 8.70711C11.3535 8.89464 11.629 9 11.9163 9H18.4163C18.7037 9 18.9792 8.89464 19.1824 8.70711C19.3855 8.51957 19.4997 8.26522 19.4997 8C19.4997 7.73478 19.3855 7.48043 19.1824 7.29289C18.9792 7.10536 18.7037 7 18.4163 7H11.9163ZM8.66634 11H6.49967V13H8.66634V11ZM10.833 12C10.833 11.7348 10.9471 11.4804 11.1503 11.2929C11.3535 11.1054 11.629 11 11.9163 11H18.4163C18.7037 11 18.9792 11.1054 19.1824 11.2929C19.3855 11.4804 19.4997 11.7348 19.4997 12C19.4997 12.2652 19.3855 12.5196 19.1824 12.7071C18.9792 12.8946 18.7037 13 18.4163 13H11.9163C11.629 13 11.3535 12.8946 11.1503 12.7071C10.9471 12.5196 10.833 12.2652 10.833 12ZM8.66634 15H6.49967V17H8.66634V15ZM10.833 16C10.833 15.7348 10.9471 15.4804 11.1503 15.2929C11.3535 15.1054 11.629 15 11.9163 15H18.4163C18.7037 15 18.9792 15.1054 19.1824 15.2929C19.3855 15.4804 19.4997 15.7348 19.4997 16C19.4997 16.2652 19.3855 16.5196 19.1824 16.7071C18.9792 16.8946 18.7037 17 18.4163 17H11.9163C11.629 17 11.3535 16.8946 11.1503 16.7071C10.9471 16.5196 10.833 16.2652 10.833 16Z" fill="black"/>
</g>
</svg>
