<svg width="30" height="27" viewBox="0 0 30 27" fill="none" xmlns="http://www.w3.org/2000/svg">
<g id="Gallery icon">
<path id="Vector" d="M2.5 4.5C2.5 4.20163 2.6317 3.91548 2.86612 3.7045C3.10054 3.49353 3.41848 3.375 3.75 3.375H26.25C26.5815 3.375 26.8995 3.49353 27.1339 3.7045C27.3683 3.91548 27.5 4.20163 27.5 4.5V22.5C27.5 22.7984 27.3683 23.0845 27.1339 23.2955C26.8995 23.5065 26.5815 23.625 26.25 23.625H3.75C3.41848 23.625 3.10054 23.5065 2.86612 23.2955C2.6317 23.0845 2.5 22.7984 2.5 22.5V4.5ZM5 5.625V21.375H25V5.625H5ZM7.5 7.875H13.75V12.375H7.5V7.875ZM13.75 14.625H7.5V19.125H13.75V14.625ZM16.25 7.875H22.5V12.375H16.25V7.875ZM22.5 14.625H16.25V19.125H22.5V14.625Z" fill="black"/>
</g>
</svg>
